<?xml version="1.0" encoding="UTF-8"?>
<svg version="1.1" xmlns="http://www.w3.org/2000/svg" width="500" height="500">
<path d="M0 0 C165 0 330 0 500 0 C500 165 500 330 500 500 C335 500 170 500 0 500 C0 335 0 170 0 0 Z " fill="#0A192F" transform="translate(0,0)"/>
<path d="M0 0 C14.961264 -0.07044513 29.92251502 -0.12316049 44.88391018 -0.15543652 C51.83257569 -0.17082895 58.78113746 -0.19177024 65.72973633 -0.22631836 C72.44710257 -0.25970054 79.16433931 -0.27689986 85.88179207 -0.28463173 C88.43276722 -0.29013532 90.98373711 -0.30088136 93.53466606 -0.31719017 C117.92992314 -0.46682208 140.63136315 1.23450027 161 16 C162.0725 16.7425 163.145 17.485 164.25 18.25 C173.22993726 27.22993726 177.24380513 37.2968697 177.5 49.75 C177.43400122 62.85412607 172.81199964 72.40697535 164 82 C163.44441406 82.63550781 162.88882813 83.27101563 162.31640625 83.92578125 C150.94515138 96.2241888 132.3312479 103.59126137 116 106 C117.0415625 106.17015625 118.083125 106.3403125 119.15625 106.515625 C144.96425904 110.8331531 170.69020628 116.70109007 186.9453125 138.921875 C194.80283455 150.69321981 195.82071535 164.00167168 193.31640625 177.75390625 C188.6098696 193.98266954 179.43486302 205.57330965 164.83203125 214.11328125 C146.73899075 223.4885445 127.33022449 226.21766117 107.203125 226.09375 C106.03219299 226.09016479 104.86126099 226.08657959 103.65484619 226.08288574 C84.73374185 226.00243 65.81311163 225.75700969 46.89324951 225.53643799 C41.58900247 225.47494873 36.28473475 225.41529685 30.98046875 225.35546875 C20.65362537 225.2387298 10.32680565 225.12002753 0 225 C0 223.02 0 221.04 0 219 C0.94101563 218.90203125 1.88203125 218.8040625 2.8515625 218.703125 C12.32370787 217.92106487 12.32370787 217.92106487 20 213 C24.11957979 204.39618837 23.42424168 194.71458365 23.38818359 185.42407227 C23.39225457 183.6572131 23.3975994 181.89035648 23.40411377 180.12350464 C23.41773158 175.34865301 23.41251141 170.57399695 23.40297651 165.79914212 C23.39534994 160.78747125 23.40243393 155.77581647 23.40713501 150.7641449 C23.41258436 142.34883639 23.40542304 133.93360702 23.39111328 125.51831055 C23.37479368 115.80936383 23.3800736 106.10060621 23.3965925 96.39166409 C23.41023712 88.03550467 23.41211234 79.67940194 23.40427649 71.32323498 C23.39961563 66.34140517 23.39893114 61.35966404 23.40888596 56.37784004 C23.41759657 51.69177467 23.41145938 47.00595137 23.39420319 42.31991196 C23.39025989 40.60715447 23.39133509 38.89437637 23.39799118 37.18162727 C23.87228592 23.64025047 23.87228592 23.64025047 20 11 C15.97082921 8.91573352 11.61542195 8.20550019 7.1875 7.375 C6.49462891 7.2409375 5.80175781 7.106875 5.08789062 6.96875 C3.39277391 6.64141712 1.69649854 6.32009406 0 6 C0 4.02 0 2.04 0 0 Z " fill="#E11A6C" transform="translate(247,156)"/>
<path d="M0 0 C2.23181918 -0.00436708 4.46164467 -0.04077925 6.69311523 -0.07861328 C22.02508234 -0.20443932 33.83349798 4.71789289 47.36499023 11.65576172 C48.32469727 12.13400391 49.2844043 12.61224609 50.27319336 13.10498047 C51.12260498 13.54036133 51.9720166 13.97574219 52.84716797 14.42431641 C55.84672456 15.5218602 58.26366204 15.53823735 61.43334961 15.37060547 C63.88032627 11.0086036 64.93604309 7.34367063 65.43334961 2.37060547 C68.07334961 2.37060547 70.71334961 2.37060547 73.43334961 2.37060547 C73.10334961 26.46060547 72.77334961 50.55060547 72.43334961 75.37060547 C69.79334961 75.37060547 67.15334961 75.37060547 64.43334961 75.37060547 C64.33836182 74.80253174 64.24337402 74.23445801 64.14550781 73.64916992 C62.22672587 62.38358547 60.20810892 51.81630968 55.43334961 41.37060547 C54.88227539 40.07316406 54.88227539 40.07316406 54.32006836 38.74951172 C48.30572596 25.50142418 38.54367491 16.32232624 25.37084961 10.43310547 C15.47252392 6.91966675 4.73538945 6.68408212 -5.12915039 10.43310547 C-13.50688881 14.52429186 -19.19394739 19.60538863 -22.56665039 28.37060547 C-25.4541017 37.03295941 -24.67760322 49.56313964 -20.99243164 57.87060547 C-11.60084741 74.33804084 5.8340114 83.77523144 21.23706055 93.91796875 C78.09422512 131.52358561 78.09422512 131.52358561 84.02319336 160.22607422 C86.38884197 178.36271357 82.79561885 195.11468181 71.67553711 209.73779297 C59.13484402 224.46327579 37.30493005 232.90735344 18.3706665 234.54949951 C14.13149273 234.79768827 9.89984134 234.84213039 5.65429688 234.81665039 C3.49960068 234.80812032 1.34755391 234.83708817 -0.80688477 234.86865234 C-13.65496625 234.93373804 -25.55601524 232.38774091 -37.44165039 227.43310547 C-38.05186035 227.18222168 -38.66207031 226.93133789 -39.29077148 226.67285156 C-43.80441753 224.78632107 -48.14756487 222.63599002 -52.41821289 220.25341797 C-54.93230007 219.22035669 -56.87391131 219.20998594 -59.56665039 219.37060547 C-61.45360665 223.65914241 -63.14857661 227.89821894 -64.56665039 232.37060547 C-66.87665039 232.37060547 -69.18665039 232.37060547 -71.56665039 232.37060547 C-71.23665039 203.99060547 -70.90665039 175.61060547 -70.56665039 146.37060547 C-67.92665039 146.37060547 -65.28665039 146.37060547 -62.56665039 146.37060547 C-62.49671875 146.98355469 -62.42678711 147.59650391 -62.35473633 148.22802734 C-60.42939287 164.7822666 -58.24854918 180.20428855 -51.19165039 195.43310547 C-50.64710205 196.61211426 -50.64710205 196.61211426 -50.09155273 197.81494141 C-47.82517913 202.46324877 -45.26956527 206.19352566 -41.71655273 209.95825195 C-40.56665039 211.37060547 -40.56665039 211.37060547 -40.56665039 213.37060547 C-39.79321289 213.71091797 -39.79321289 213.71091797 -39.00415039 214.05810547 C-36.56665039 215.37060547 -36.56665039 215.37060547 -33.50415039 217.74560547 C-22.63794853 225.67816752 -8.53452657 226.57097867 4.43334961 225.37060547 C14.15768185 223.70457292 22.23655993 219.01995076 28.43334961 211.37060547 C34.54993849 202.20265706 34.87630021 191.02352906 33.43334961 180.37060547 C32.25985629 176.02313612 30.65718742 172.27682492 28.43334961 168.37060547 C27.83522461 167.31873047 27.23709961 166.26685547 26.62084961 165.18310547 C12.39320426 146.89041859 -8.00220034 134.57592312 -27.19165039 121.99560547 C-44.79086952 110.32239336 -60.69688604 97.07757291 -67.56665039 76.37060547 C-67.9237207 75.34837891 -68.28079102 74.32615234 -68.64868164 73.27294922 C-72.37901688 59.8898537 -70.45390371 43.81563436 -64.17602539 31.68310547 C-55.43747499 16.22966897 -41.50111525 7.17073436 -24.56665039 2.37060547 C-16.45011154 0.16797597 -8.3502792 -0.00182301 0 0 Z " fill="#E01A6C" transform="translate(138.566650390625,151.62939453125)"/>
<path d="M0 0 C3.16926452 -0.01653456 6.33851771 -0.02639822 9.5078125 -0.03515625 C10.83969604 -0.04222595 10.83969604 -0.04222595 12.19848633 -0.04943848 C27.64663963 -0.08137081 41.47987491 1.86962372 53.4375 12.5625 C66.1118647 26.54518622 66.94731711 43.86775209 66.24267578 61.72119141 C65.22518823 75.46853328 60.84515276 88.49541079 50.9375 98.3125 C41.50575542 105.96027973 32.44774977 107.46646404 20.625 107.6875 C19.07317017 107.73487305 19.07317017 107.73487305 17.48999023 107.78320312 C11.51181437 107.74058144 7.80714509 107.0125478 3.31787109 102.97192383 C-0.40620003 97.3996151 -0.28137514 91.02686272 -0.22705078 84.57641602 C-0.22734283 83.6585582 -0.22763489 82.74070038 -0.22793579 81.79502869 C-0.22654983 78.78122282 -0.21102324 75.76766858 -0.1953125 72.75390625 C-0.19157976 70.65640905 -0.18873402 68.5589101 -0.18673706 66.46141052 C-0.17912115 60.95573058 -0.15949021 55.45015709 -0.1373291 49.94451904 C-0.11682664 44.32044922 -0.10772594 38.6963621 -0.09765625 33.07226562 C-0.07624239 22.04813046 -0.04213113 11.0240741 0 0 Z " fill="#0A192F" transform="translate(322,267)"/>
<path d="M0 0 C8.07385658 4.49245717 12.27351511 11.85868917 14.8203125 20.6171875 C19.80892883 41.65741051 18.40102236 66.25200987 7.3203125 85.0546875 C2.41304053 91.89970277 -4.44436759 94.97528723 -12.45536804 96.70497131 C-16.65933879 97.38808843 -20.80698048 97.32786662 -25.0546875 97.2421875 C-25.92029297 97.23316406 -26.78589844 97.22414063 -27.67773438 97.21484375 C-29.78267529 97.19158473 -31.88747092 97.15572758 -33.9921875 97.1171875 C-34.08501204 85.7816488 -34.15601581 74.44620106 -34.19943619 63.11035919 C-34.22027955 57.84622234 -34.2485379 52.5823462 -34.29394531 47.31835938 C-34.33751885 42.23495432 -34.36134906 37.1517995 -34.37169647 32.06822205 C-34.37906719 30.1321977 -34.39346048 28.19618651 -34.41510773 26.26026917 C-34.44429478 23.54105409 -34.44813714 20.82286302 -34.44628906 18.10351562 C-34.46067017 17.30941284 -34.47505127 16.51531006 -34.48986816 15.69714355 C-34.44867608 10.06786061 -33.08127726 5.84580361 -29.9921875 1.1171875 C-22.53137709 -5.89145258 -8.5645802 -4.09856148 0 0 Z " fill="#0B192F" transform="translate(355.9921875,164.8828125)"/>
</svg>
